<?xml version="1.0" encoding="iso-8859-1"?>
<!-- Generator: Adobe Illustrator 19.0.0, SVG Export Plug-In . SVG Version: 6.00 Build 0)  -->
<svg version="1.1" id="Layer_1" xmlns="http://www.w3.org/2000/svg" xmlns:xlink="http://www.w3.org/1999/xlink" x="0px" y="0px"
	 viewBox="0 0 512 512" style="enable-background:new 0 0 512 512;" xml:space="preserve">
<path style="fill:#E667A8;" d="M377,61h-91c-8.291,0-15,6.709-15,15v120c0,8.291,6.709,15,15,15h121c8.291,0,15-6.709,15-15v-90
	C422,81.186,401.814,61,377,61z"/>
<path style="fill:#F9BC35;" d="M286,211h-90c-8.291,0-15-6.709-15-15V61c0-33.091,26.909-61,60-61s60,27.909,60,61v135
	C301,204.291,294.291,211,286,211z"/>
<path style="fill:#51DAE6;" d="M407,121c-41.353,0-76,33.647-76,75c0,8.291,6.709,15,15,15h121c8.291,0,15-6.709,15-15
	C482,154.648,448.353,121,407,121z"/>
<g>
	<path style="fill:#F39E31;" d="M301,121h-45c-8.291,0-15,6.709-15,15s6.709,15,15,15h45V121z"/>
	<path style="fill:#F39E31;" d="M301,61h-45c-8.291,0-15,6.709-15,15s6.709,15,15,15h45V61z"/>
</g>
<path style="fill:#A1A7B3;" d="M466.99,181H146.913c-0.381,0-0.747,0.015-1.113,0.044l-5.186-28.462
	C134.14,116.899,102.07,91,65.771,91H15c-8.291,0-15,6.709-15,15s6.709,15,15,15h50.771c21.797,0,41.444,15.542,45.341,36.943
	l35.654,197.099c1.096,6.047,3.368,11.624,6.553,16.517C142.788,379.803,136,392.619,136,407c0,24.814,20.186,45,45,45h285
	c8.291,0,15-6.709,15-15s-6.709-15-15-15H181c-8.276,0-15-6.724-15-15s6.724-15,15-15c1.255,0,2.467-0.171,3.632-0.46
	c2.096,0.299,4.232,0.46,6.402,0.46h255.961c22.075,0,40.737-15.806,44.385-37.603l19.995-121
	C515.959,205.925,494.729,181,466.99,181z M467.095,211c9.3,0,16.199,8.399,14.7,17.399l-2.1,12.601H156.7l-5.4-30H467.095z
	 M190.901,362c-7.2,0-13.2-5.101-14.7-12.301L162.1,271H211v91H190.901z M241,271h30v91h-30V271z M461.995,349.399
	c-1.201,7.202-7.5,12.601-15,12.601H301v-91h173.895L461.995,349.399z"/>
<g>
	<path style="fill:#979CA7;" d="M466,422H316v30h150c8.291,0,15-6.709,15-15S474.291,422,466,422z"/>
	<path style="fill:#979CA7;" d="M466.991,181H316v30h151.095c9.3,0,16.199,8.399,14.7,17.399l-2.1,12.601H316v30h15v91h-15v30
		h130.996c22.075,0,40.737-15.806,44.385-37.603l19.995-121C515.959,205.924,494.729,181,466.991,181z M362,271h30v91h-30V271z
		 M461.995,349.399c-1.201,7.202-7.5,12.601-15,12.601H422v-91h52.895L461.995,349.399z"/>
</g>
<path style="fill:#5C5F66;" d="M196,512c-24.814,0-45-20.186-45-45s20.186-45,45-45s45,20.186,45,45S220.814,512,196,512z"/>
<path style="fill:#53565C;" d="M241,467c0-24.814-20.186-45-45-45v90C220.814,512,241,491.815,241,467z"/>
<path style="fill:#E6EEFF;" d="M196,452c-8.276,0-15,6.724-15,15s6.724,15,15,15s15-6.724,15-15S204.276,452,196,452z"/>
<path style="fill:#DAE2F2;" d="M211,467c0-8.276-6.724-15-15-15v30C204.276,482,211,475.276,211,467z"/>
<path style="fill:#5C5F66;" d="M406,512c-24.814,0-45-20.186-45-45s20.186-45,45-45s45,20.186,45,45S430.814,512,406,512z"/>
<path style="fill:#53565C;" d="M451,467c0-24.814-20.186-45-45-45v90C430.814,512,451,491.815,451,467z"/>
<path style="fill:#E6EEFF;" d="M406,452c-8.276,0-15,6.724-15,15s6.724,15,15,15s15-6.724,15-15S414.276,452,406,452z"/>
<path style="fill:#DAE2F2;" d="M421,467c0-8.276-6.724-15-15-15v30C414.276,482,421,475.276,421,467z"/>
<g>
</g>
<g>
</g>
<g>
</g>
<g>
</g>
<g>
</g>
<g>
</g>
<g>
</g>
<g>
</g>
<g>
</g>
<g>
</g>
<g>
</g>
<g>
</g>
<g>
</g>
<g>
</g>
<g>
</g>
</svg>
